/* XPM */
static char * eprom_xpm[] = {
"97 47 7 1",
" 	c #000000000000",
".	c #CF3CCF3CCF3C",
"X	c #B6DAB2CAB6DA",
"o	c #FFFFFFFFFFFF",
"O	c #D75CD75C0000",
"+	c #30C230C230C2",
"@	c #514451445144",
"                                                                                                 ",
"                                                                                                 ",
"  .....   .....   .....   .....   .....   .....   .....   .....   .....   .....   .....   .....  ",
"  XXXXX   XXXXX   XXXXX   XXXXX   XXXXX   XXXXX   XXXXX   XXXXX   XXXXX   XXXXX   XXXXX   XXXXX  ",
"  .....   .....   .....   .....   .....   .....   .....   .....   .....   .....   .....   .....  ",
".................................................................................................",
".ooooooooooooooooooooooooooooooooooooooooooooooooooooooooooooooooooooooooooooooooooooooooooooooo.",
".ooooooooooooooooooooooooooooooooooooooooooooooooooooooooooooooooooooooooooooooooooooooooooooooo.",
".ooooooooooooooooooooooooooooooOOOOOOOOOOOOOOOOOOOOOOOOOOOOOOOOOOOoooooooooooooooooooooooooooooo.",
".ooooooooooooooooooooooooooooooOOOOOOOOOOOOO.........OOOOOOOOOOOOOoooooooooooooooooooooooooooooo.",
".ooooooooooooooooooooooooooooooOOOOOOOOOO...+++++++++...OOOOOOOOOOoooooooooooooooooooooooooooooo.",
".ooooooooooooooooooooooooooooooOOOOOOOO..+++++++++++++++..OOOOOOOOoooooooooooooooooooooooooooooo.",
".ooooooooooooooooooooooooooooooOOOOOOO.+++++++++++++++++++.OOOOOOOoooooooooooooooooooooooooooooo.",
".ooooooooooooooooooooooooooooooOOOOOO.+++++++++++++++++++++.OOOOOOoooooooooooooooooooooooooooooo.",
".ooooooooooooooooooooooooooooooOOOOO.++XXXXXXXXXXXXXXXXXXXX+.OOOOOoooooooooooooooooooooooooooooo.",
".ooooooooooooooooooooooooooooooOOOO.+++XX@XXXXX.X+XX+XXXXXX++.OOOOoooooooooooooooooooooooooooooo.",
".ooooooooooooooooooooooooooooooOOO.++++XXXXXX@XXXXXXXX.XXXX+++.OOOoooooooooooooooooooooooooooooo.",
".ooooooooooooooooooooooooooooooOOO.++++XX.XX.XXXXX.X+XXX++X+++.OOOoooooooooooooooooooooooooooooo.",
".ooooooooooooooooooooooooooooooOO.+++++XXXXXXXX+XXXXXXXXXXX++++.OOoooooooooooooooooooooooooooooo.",
".ooooooooooooooooooooooooooooooOO.+++++XXX+XXXXXX@XXXX@XXXX++++.OOoooooooooooooooooooooooooooooo.",
".ooooooooooooooooooooooooooooooO.++++++XXXXX@XX.XXXX.XXX.XX+++++.Ooooooooooooooooooooooooooooooo.",
".ooooooooooooooooooooooooooooooO.++++++XXXXXX@X.XX.XX+XXXXX+++++.Ooooooooooooooooooooooooooooooo.",
".ooooooooooooooooooooooooooooooO.++++++XX@XXXXXX+XXXXXXX.XX+++++.Ooooooooooooooooooooooooooooooo.",
".ooooooooooooooooooooooooooooooO.++++++XXXXX+X.XXXXXXX.XXXX+++++.Ooooooooooooooooooooooooooooooo.",
".ooooooooooooooooooooooooooooooO.++++++XXXXXXXXXXXX+XXXXXXX+++++.Ooooooooooooooooooooooooooooooo.",
".ooooooooooooooooooooooooooooooO.++++++XXXXXXXXX@X.XX.X+XXX+++++.Ooooooooooooooooooooooooooooooo.",
".ooooooooooooooooooooooooooooooO.++++++XXX+XX@XXXXXXXXXXXXX+++++.Ooooooooooooooooooooooooooooooo.",
".ooooooooooooooooooooooooooooooOO.+++++XXXXXXXXXXXXX@XXXXXX++++.OOoooooooooooooooooooooooooooooo.",
".ooooooooooooooooooooooooooooooOO.+++++XXX.XXXXX+X.XXXXXXXX++++.OOoooooooooooooooooooooooooooooo.",
".ooooooooooooooooooooooooooooooOOO.++++XXXXX+XX.XXXXXX+XX@X+++.OOOoooooooooooooooooooooooooooooo.",
".ooooooooooooooooooooooooooooooOOO.++++XXXXXXXXXXX.X@XXXXXX+++.OOOoooooooooooooooooooooooooooooo.",
".ooooooooooooooooooooooooooooooOOOO.+++X.XXX.XX.XXXXXXXX.XX++.OOOOoooooooooooooooooooooooooooooo.",
".ooooooooooooooooooooooooooooooOOOOO.++XXXXXXXXXXXXXXXXXXXX+.OOOOOoooooooooooooooooooooooooooooo.",
".ooooooooooooooooooooooooooooooOOOOOO.+++++++++++++++++++++.OOOOOOoooooooooooooooooooooooooooooo.",
".ooooooooooooooooooooooooooooooOOOOOOO.+++++++++++++++++++.OOOOOOOoooooooooooooooooooooooooooooo.",
".ooooooooooooooooooooooooooooooOOOOOOOO..+++++++++++++++..OOOOOOOOoooooooooooooooooooooooooooooo.",
".ooooooooooooooooooooooooooooooOOOOOOOOOO...+++++++++...OOOOOOOOOOoooooooooooooooooooooooooooooo.",
".ooooooooooooooooooooooooooooooOOOOOOOOOOOOO.........OOOOOOOOOOOOOoooooooooooooooooooooooooooooo.",
".ooooooooooooooooooooooooooooooOOOOOOOOOOOOOOOOOOOOOOOOOOOOOOOOOOOoooooooooooooooooooooooooooooo.",
".ooooooooooooooooooooooooooooooooooooooooooooooooooooooooooooooooooooooooooooooooooooooooooooooo.",
".ooooooooooooooooooooooooooooooooooooooooooooooooooooooooooooooooooooooooooooooooooooooooooooooo.",
".................................................................................................",
"  .....   .....   .....   .....   .....   .....   .....   .....   .....   .....   .....   .....  ",
"  XXXXX   XXXXX   XXXXX   XXXXX   XXXXX   XXXXX   XXXXX   XXXXX   XXXXX   XXXXX   XXXXX   XXXXX  ",
"  .....   .....   .....   .....   .....   .....   .....   .....   .....   .....   .....   .....  ",
"                                                                                                 ",
"                                                                                                 "};
