/* XPM */
static char * hex_xpm[] = {
"178 102 4 1",
" 	c #BEFBB6DA69A6",
".	c #000000000000",
"X	c #CF3CCF3CCF3C",
"o	c #30C230C230C2",
"                                                                                                                                                                                  ",
"                                                                                                                                                                                  ",
"                                                                                                                                                                                  ",
" .       .       .       .       .       .       .       .       .       .       .       .       .       .       .       .       .       .       .       .       .       .       .",
"...     ...     ...     ...     ...     ...     ...     ...     ...     ...     ...     ...     ...     ...     ...     ...     ...     ...     ...     ...     ...     ...     ..",
" .       .       .       .       .       .       .       .       .       .       .       .       .       .       .       .       .       .       .       .       .       .       .",
"                                                                                                                                                                                  ",
"                                                                                                                                                                                  ",
"                                                                                                                                                                                  ",
"                                                                                                                                                                                  ",
"                                                                                                                                                                                  ",
" .       .       .       .       .       .       .       .       .       .       .       .       .       .       .       .       .       .       .       .       .       .       .",
"...     ...     ...     ...     ...     ...     ...     ...     ...     ...     ...     ...     ...     ...     ...     ...     ...     ...     ...     ...     ...     ...     ..",
" .       .       .       .       .       .       .       .       .       .       .       .       .       .       .       .       .       .       .       .       .       .       .",
"                                                                                                                                                                                  ",
"                                                                                                                                                                                  ",
"                                                                                                                                                                                  ",
"                                                                                                                                                                                  ",
"                                                                                                                                                                                  ",
" .       .       .       .       .       .       .       .       .       .       .       .       .       .       .       .       .       .       .       .       .       .       .",
"...     ...     ...     ...     ...     ...     ...     ...     ...     ...     ...     ...     ...     ...     ...     ...     ...     ...     ...     ...     ...     ...     ..",
" .       .       .       .       .       .       .       .       .       .       .       .       .       .       .       .       .       .       .       .       .       .       .",
"                                                                                                                                                                                  ",
"                                                                                                                                                                                  ",
"                                                                                                                                                                                  ",
"                                                                                                                                                                                  ",
"                                                                                                                                                                                  ",
" .       .       .       .       .       .       .       .       .       .       .       .       .       .       .       .       .       .       .       .       .       .       .",
"...     ...     ...     ...     ...     ...     ...     ...     ...     ...     ...     ...     ...     ...     ...     ...     ...     ...     ...     ...     ...     ...     ..",
" .       .       .       .       .       .       .       .       .       .       .       .       .       .       .       .       .       .       .       .       .       .       .",
"                                                                                                                                                                                  ",
"                                                                                                                                                                                  ",
"                                                                                                                                                                                  ",
"                                                                                                                                                                                  ",
"                                                                                                                                                                                  ",
" .       .       .       .       .       .       .       .       .       .       .       .       .       .       .       .       .       .       .       .       .       .       .",
"...     ...     ...     ...     ...     ...     ...     ...     ...     ...     ...     ...     ...     ...     ...     ...     ...     ...     ...     ...     ...     ...     ..",
" .       .       .       .       .       .       .       .       .       .       .       .       .       .       .       .       .       .       .       .       .       .       .",
"                                                                                                                                                                                  ",
"                                                                                                                                                                                  ",
"                                                                                                                                                                                  ",
"                                                                                                                                                                                  ",
"                                                                                                                                                                                  ",
" .       .       .       .       .       .       .       .       .       .       .       .       .       .       .       .       .       .       .       .       .       .       .",
"...     ...     ...     ...     ...     ...     ...     ...     ...     ...     ...     ...     ...     ...     ...     ...     ...     ...     ...     ...     ...     ...     ..",
" .       .       .       .       .       .       .       .       .       .       .       .       .       .       .       .       .       .       .       .       .       .       .",
"                                                                                                                                                                                  ",
"                                                                                                                                                                                  ",
"                                                                                                                                                                                  ",
"                                                                                                                                                                                  ",
"                                                                                                                                                                                  ",
" .       .       .       .       .       .       .       .       .       .       .       .       .       .       .       .       .       .       .       .       .       .       .",
"...     ...     ...     ...     ...     ...     ...     ...     ...     ...     ...     ...     ...     ...     ...     ...     ...     ...     ...     ...     ...     ...     ..",
" .       .       .       .       .       .       .       .       .       .       .       .       .       .       .       .       .       .       .       .       .       .       .",
"                                                                                                                                                                                  ",
"                                                                                                                                                                                  ",
"                                                                                                                                                                                  ",
"                                                                                                                                                                                  ",
"                                                                                                                                                                                  ",
" .       .       .       .       .       .       .       .       .       .       .       .       .       .       .       .       .       .       .       .       .       .       .",
"...     ...     ...     ...     ...     ...     ...     ...     ...     ...     ...     ...     ...     ...     ...     ...     ...     ...     ...     ...     ...     ...     ..",
" .       .       .       .       .       .       .       .       .       .       .       .       .       .       .       .       .       .       .       .       .       .       .",
"                                                                                                                                                                                  ",
"                                                                                                                                                                                  ",
"                                                                                                                                                                                  ",
"                                                                                                                                                                                  ",
"                                                                                                                                                                                  ",
" .       .       .       .       .       .       .       .       .       .       .       .       .       .       .       .       .       .       .       .       .       .       .",
"...     ...     ...    XXXXX   XXXXX   XXXXX   XXXXX   XXXXX   XXXXX   XXXXX   XXXXX    ...     ...    XXXXX   XXXXX   XXXXX   XXXXX   XXXXX   XXXXX   XXXXX   XXXXX    ...     ..",
" .       .       .     XXXXX   XXXXX   XXXXX   XXXXX   XXXXX   XXXXX   XXXXX   XXXXX     .       .     XXXXX   XXXXX   XXXXX   XXXXX   XXXXX   XXXXX   XXXXX   XXXXX     .       .",
"                       XXXXX   XXXXX   XXXXX   XXXXX   XXXXX   XXXXX   XXXXX   XXXXX                   XXXXX   XXXXX   XXXXX   XXXXX   XXXXX   XXXXX   XXXXX   XXXXX              ",
"                     ooooooooooooooooooooooooooooooooooooooooooooooooooooooooooooooooo               ooooooooooooooooooooooooooooooooooooooooooooooooooooooooooooooooo            ",
"                     ooooooooooooooooooooooooooooooooooooooooooooooooooooooooooooooooo               ooooooooooooooooooooooooooooooooooooooooooooooooooooooooooooooooo            ",
"                     ooooooooooooooooooooooooooooooooooooooooooooooooooooooooooooooooo               ooooooooooooooooooooooooooooooooooooooooooooooooooooooooooooooooo            ",
"                     ooooooooooooooooooooooooooooooooooooooooooooooooooooooooooooooooo               ooooooooooooooooooooooooooooooooooooooooooooooooooooooooooooooooo            ",
" .       .       .   ooooooooooooXXXoooXoXXXoooXoooooooooooooooooooooooooooooooooooooo   .       .   ooooooooooooXXXoooXoXXXoooXoooooooooooooooooooooooooooooooooooooo   .       .",
"...     ...     ...  ooooooooooooooXooXXoooXooXXoooooooooooooooooooooooooooooooooooooo  ...     ...  ooooooooooooooXooXXoooXooXXoooooooooooooooooooooooooooooooooooooo  ...     ..",
" .       .       .   XXXXXooooooooXooXoXooXooXoXoooooooooooooooooooooooooooooooooooooo   .       .   XXXXXooooooooXooXoXooXooXoXoooooooooooooooooooooooooooooooooooooo   .       .",
"                     oooooXooooooXoooXXXXXoooXXXXooooooooooooooooooooooooooooooooooooo               oooooXooooooXoooXXXXXoooXXXXooooooooooooooooooooooooooooooooooooo            ",
"                     ooooooXoooooXoooooXoXoooooXoooooooooooooooooooooooooooooooooooooo               ooooooXoooooXoooooXoXoooooXoooooooooooooooooooooooooooooooooooooo            ",
"                     ooooooXoooooooooooooooooooooooooooooooooooooooooooooooooooooooooo               ooooooXoooooooooooooooooooooooooooooooooooooooooooooooooooooooooo            ",
"                     ooooooXoooooooooooooooooooooooooooooooooooooooooooooooooooooooooo               ooooooXoooooooooooooooooooooooooooooooooooooooooooooooooooooooooo            ",
"                     oooooXooooooooooooooooooooooooooooooooooooooooooooooooooooooooooo               oooooXooooooooooooooooooooooooooooooooooooooooooooooooooooooooooo            ",
" .       .       .   XXXXXoooooooooooooooooooooooooooooooooooooooooooooooooooooooooooo   .       .   XXXXXoooooooooooooooooooooooooooooooooooooooooooooooooooooooooooo   .       .",
"...     ...     ...  ooooooooooooooooooooooooooooooooooooooooooooooooooooooooooooooooo  ...     ...  ooooooooooooooooooooooooooooooooooooooooooooooooooooooooooooooooo  ...     ..",
" .       .       .   ooooooooooooooooooooooooooooooooooooooooooooooooooooooooooooooooo   .       .   ooooooooooooooooooooooooooooooooooooooooooooooooooooooooooooooooo   .       .",
"                     ooooooooooooooooooooooooooooooooooooooooooooooooooooooooooooooooo               ooooooooooooooooooooooooooooooooooooooooooooooooooooooooooooooooo            ",
"                     ooXXooooooooooooooooooooooooooooooooooooooooooooooooooooooooooooo               ooXXooooooooooooooooooooooooooooooooooooooooooooooooooooooooooooo            ",
"                     ooXXooooooooooooooooooooooooooooooooooooooooooooooooooooooooooooo               ooXXooooooooooooooooooooooooooooooooooooooooooooooooooooooooooooo            ",
"                     ooooooooooooooooooooooooooooooooooooooooooooooooooooooooooooooooo               ooooooooooooooooooooooooooooooooooooooooooooooooooooooooooooooooo            ",
"                       XXXXX   XXXXX   XXXXX   XXXXX   XXXXX   XXXXX   XXXXX   XXXXX                   XXXXX   XXXXX   XXXXX   XXXXX   XXXXX   XXXXX   XXXXX   XXXXX              ",
" .       .       .     XXXXX   XXXXX   XXXXX   XXXXX   XXXXX   XXXXX   XXXXX   XXXXX     .       .     XXXXX   XXXXX   XXXXX   XXXXX   XXXXX   XXXXX   XXXXX   XXXXX     .       .",
"...     ...     ...    XXXXX   XXXXX   XXXXX   XXXXX   XXXXX   XXXXX   XXXXX   XXXXX    ...     ...    XXXXX   XXXXX   XXXXX   XXXXX   XXXXX   XXXXX   XXXXX   XXXXX    ...     ..",
" .       .       .       .       .       .       .       .       .       .       .       .       .       .       .       .       .       .       .       .       .       .       .",
"                                                                                                                                                                                  ",
"                                                                                                                                                                                  ",
"                                                                                                                                                                                  ",
"                                                                                                                                                                                  ",
"                                                                                                                                                                                  ",
" .       .       .       .       .       .       .       .       .       .       .       .       .       .       .       .       .       .       .       .       .       .       .",
"...     ...     ...     ...     ...     ...     ...     ...     ...     ...     ...     ...     ...     ...     ...     ...     ...     ...     ...     ...     ...     ...     ..",
" .       .       .       .       .       .       .       .       .       .       .       .       .       .       .       .       .       .       .       .       .       .       ."};
