/* XPM */
static char * led_xpm[] = {
"156 116 8 1",
" 	c #BEFBB6DA69A6",
".	c #000000000000",
"X	c #CF3CCF3CCF3C",
"o	c #965851440000",
"O	c #69A641030000",
"+	c #FFFF0000FFFF",
"@	c #FFFFFFFF0000",
"#	c #30C230C230C2",
"                                                                                                                                                            ",
" .       .       .       .       .       .       .       .       .       .       .       .       .       .       .       .       .       .       .       .  ",
"...     ...     ...     ...     ...     ...     ...     ...     ...     ...     ...     ...     ...     ...     ...     ...     ...     ...     ...     ... ",
" .       .       .       .       .       .       .       .       .       .       .       .       .       .       .       .       .       .       .       .  ",
"                                                                                                                                                            ",
"                                                                                                                                                            ",
"                                                                                                                                                            ",
"                                                                                                                                                            ",
"                                                                                                                                                            ",
" .       .       .       .       .       .       .       .       .       .       .       .       .       .       .       .       .       .       .       .  ",
"...     ...     ...     ...     ...     ...     ...     ...     ...     ...     ...     ...     ...     ...     ...     ...     ...     ...     ...     ... ",
" .       .       .       .       .       .       .       .       .       .       .       .       .       .       .       .       .       .       .       .  ",
"                                                                                                                                                            ",
"                                                                                                                                                            ",
"                                                                                                                                                            ",
"                                                                                                                                                            ",
"                                                                                                                                                            ",
" .       .       .       .       .       .       .       .       .       .       .       .       .       .       .       .       .       .       .       .  ",
"...     ...     ...     ...     ...     ...     ...     ...     ...     ...     ...     ...     ...     ...     ...     ...     ...     ...     ...     ... ",
" .       .       .       .       .       .       .       .       .       .       .       .       .       .       .       .       .       .       .       .  ",
"                                                                                                                                                            ",
"                                                                                                                                                            ",
"                                                                                                                                                            ",
"                                                                                                                                                            ",
"                                                                                                                                                            ",
" .       .       .       .       .       .       .       .       .       .       .       .       .       .       .       .       .       .       .       .  ",
"...     ...     ...     ...     ...     ...     ...     ...     ...     ...     ...     ...     ...     ...     ...     ...     ...     ...     ...     ... ",
" .       .       .       .       .       .       .       .       .       .       .       .       .       .       .       .       .       .       .       .  ",
"                                                                                                                                                            ",
"                                                                                                                                                            ",
"                                                                                                                                                            ",
"                                                                                                                                                            ",
"                                                                                                                                                            ",
" .       .       .       .       .       .       .       .       .       .       .       .       .       .       .       .       .       .       .       .  ",
"...     ...     ...     ...     ...     ...     ...     ...     ...     ...     ...     ...     ...     ...     ...     ...     ...     ...     ...     ... ",
" .       .       .       .       .       .       .       .       .       .       .       .       .       .       .       .       .       .       .       .  ",
"                                                                                                                                                            ",
"                                                                                                                                                            ",
"                                                                                                                                                            ",
"                                                                                                                                                            ",
"                                                                                                                                                            ",
" .       .       .       .       .       .       .       .       .       .       .       .       .       .       .       .       .       .       .       .  ",
"...     ...     ...     .X.     ...     .X.     ...     .X.     ...     .X.     ...     .X.     ...     .X.     ...     .X.     ...     .X.     ...     ... ",
" .       .       .       X       .       X       .       X       .       X       .       X       .       X       .       X       .       X       .       .  ",
"                         X               X               X               X               X               X               X               X                  ",
"                         X               X               X               X               X               X               X               X                  ",
"                         X               X               X               X               X               X               X               X                  ",
"                         X               X               X               X               X               X               X               X                  ",
"                       ooooo           ooooo           ooooo           ooooo           ooooo           ooooo           ooooo           ooooo                ",
" .       .       .     ooooo     .     ooooo     .     ooooo     .     ooooo     .     ooooo     .     ooooo     .     ooooo     .     ooooo     .       .  ",
"...     ...     ...    ooooo    ...    ooooo    ...    ooooo    ...    ooooo    ...    ooooo    ...    ooooo    ...    ooooo    ...    ooooo    ...     ... ",
" .       .       .     ooooo     .     ooooo     .     ooooo     .     ooooo     .     ooooo     .     ooooo     .     ooooo     .     ooooo     .       .  ",
"                       ooooo           ooooo           ooooo           ooooo           ooooo           ooooo           ooooo           ooooo                ",
"                       ooooo           ooooo           ooooo           ooooo           ooooo           ooooo           ooooo           ooooo                ",
"                       OOOOO           OOOOO           OOOOO           OOOOO           OOOOO           OOOOO           OOOOO           OOOOO                ",
"                       ooooo           ooooo           ooooo           ooooo           ooooo           ooooo           ooooo           ooooo                ",
"                       +++++           +++++           +++++           +++++           +++++           +++++           +++++           +++++                ",
" .       .       .     ooooo     .     ooooo     .     ooooo     .     ooooo     .     ooooo     .     ooooo     .     ooooo     .     ooooo     .       .  ",
"...     ...     ...    @@@@@    ...    @@@@@    ...    @@@@@    ...    @@@@@    ...    @@@@@    ...    @@@@@    ...    @@@@@    ...    @@@@@    ...     ... ",
" .       .       .     ooooo     .     ooooo     .     ooooo     .     ooooo     .     ooooo     .     ooooo     .     ooooo     .     ooooo     .       .  ",
"                       ooooo           ooooo           ooooo           ooooo           ooooo           ooooo           ooooo           ooooo                ",
"                         X               X               X               X               X               X               X               X                  ",
"                         X               X               X               X               X               X               X               X                  ",
"                         X               X               X               X               X               X               X               X                  ",
"                         X               X               X               X               X               X               X               X                  ",
" .       .       .       X       .       X       .       X       .       X       .       X       .       X       .       X       .       X       .       .  ",
"...     ...     ...     .X.     ...     .X.     ...     .X.     ...     .X.     ...     .X.     ...     .X.     ...     .X.     ...     .X.     ...     ... ",
" .       .       .       .       .       .       .       .       .       .       .       .       .       .       .       .       .       .       .       .  ",
"                                                                                                                                                            ",
"                                                                                                                                                            ",
"                                                                                                                                                            ",
"                                                                                                                                                            ",
"                                                                                                                                                            ",
" .       .       .       .       .       .       .       .       .       .       .       .       .       .       .       .       .       .       .       .  ",
"...     ...     ...     ...     ...     ...     ...     ...     ...     ...     ...     ...     ...     ...     ...     ...     ...     ...     ...     ... ",
" .       .       .       .       .       .       .       .       .       .       .       .       .       .       .       .       .       .       .       .  ",
"                                                                                                                                                            ",
"                                                                                                                                                            ",
"                                                                                                                                                            ",
"                                                                                                                                                            ",
"                                                                                                                                                            ",
" .       .       .       .       .       .       .       .       .       .       .       .       .       .       .       .       .       .       .       .  ",
"...     ...    XXXXX   XXXXX   XXXXX   XXXXX   XXXXX   XXXXX   XXXXX   XXXXX    ...     ...     ...     ...     ...     ...     ...     ...     ...     ... ",
" .       .     XXXXX   XXXXX   XXXXX   XXXXX   XXXXX   XXXXX   XXXXX   XXXXX     .       .       .       .       .       .       .       .       .       .  ",
"               XXXXX   XXXXX   XXXXX   XXXXX   XXXXX   XXXXX   XXXXX   XXXXX                                                                                ",
"             #################################################################                                                                              ",
"             #################################################################                                                                              ",
"             #################################################################                                                                              ",
"             #################################################################                                                                              ",
" .       .   ############XXX###X#XXX###X######################################   .       .       .       .       .       .       .       .       .       .  ",
"...     ...  ##############X##XX###X##XX######################################  ...     ...     ...     ...     ...     ...     ...     ...     ...     ... ",
" .       .   XXXXX########X##X#X##X##X#X######################################   .       .       .       .       .       .       .       .       .       .  ",
"             #####X######X###XXXXX###XXXX#####################################                                                                              ",
"             ######X#####X#####X#X#####X######################################                                                                              ",
"             ######X##########################################################                                                                              ",
"             ######X##########################################################                                                                              ",
"             #####X###########################################################                                                                              ",
" .       .   XXXXX############################################################   .       .       .       .       .       .       .       .       .       .  ",
"...     ...  #################################################################  ...     ...     ...     ...     ...     ...     ...     ...     ...     ... ",
" .       .   #################################################################   .       .       .       .       .       .       .       .       .       .  ",
"             #################################################################                                                                              ",
"             ##XX#############################################################                                                                              ",
"             ##XX#############################################################                                                                              ",
"             #################################################################                                                                              ",
"               XXXXX   XXXXX   XXXXX   XXXXX   XXXXX   XXXXX   XXXXX   XXXXX                                                                                ",
" .       .     XXXXX   XXXXX   XXXXX   XXXXX   XXXXX   XXXXX   XXXXX   XXXXX     .       .       .       .       .       .       .       .       .       .  ",
"...     ...    XXXXX   XXXXX   XXXXX   XXXXX   XXXXX   XXXXX   XXXXX   XXXXX    ...     ...     ...     ...     ...     ...     ...     ...     ...     ... ",
" .       .       .       .       .       .       .       .       .       .       .       .       .       .       .       .       .       .       .       .  ",
"                                                                                                                                                            ",
"                                                                                                                                                            ",
"                                                                                                                                                            ",
"                                                                                                                                                            ",
"                                                                                                                                                            ",
" .       .       .       .       .       .       .       .       .       .       .       .       .       .       .       .       .       .       .       .  ",
"...     ...     ...     ...     ...     ...     ...     ...     ...     ...     ...     ...     ...     ...     ...     ...     ...     ...     ...     ... ",
" .       .       .       .       .       .       .       .       .       .       .       .       .       .       .       .       .       .       .       .  "};
