/* XPM */
static char * ledon_xpm[] = {
"12 12 3 1",
" 	c None",
".	c darkred",
"X	c red",
"     ..     ",
"   ......   ",
"  ..XXXX..  ",
" ..XXXXXX.. ",
" .XXXXXXXX. ",
"..XXXXXXXX..",
"..XXXXXXXX..",
" .XXXXXXXX. ",
" ..XXXXXX.. ",
"  ..XXXX..  ",
"   ......   ",
"     ..     "};
