/* XPM */
static char * pushup_xpm[] = {
"25 25 3 1",
" 	c None",
".	c gray80",
"X	c darkred",
"                         ",
"                         ",
"                         ",
"          .....          ",
"        .........        ",
"       ...........       ",
"      ....XXXXX....      ",
"     ....XXXXXXX....     ",
"    ....XXXXXXXXX....    ",
"    ...XXXXXXXXXXX...    ",
"    ..XXXXXXXXXXXXX..    ",
"   ...XXXXXXXXXXXXX...   ",
"   ...XXXXXXXXXXXXX...   ",
"   ...XXXXXXXXXXXXX...   ",
"    ..XXXXXXXXXXXXX..    ",
"    ...XXXXXXXXXXX...    ",
"    ....XXXXXXXXX....    ",
"     ....XXXXXXX....     ",
"      ....XXXXX....      ",
"       ...........       ",
"        .........        ",
"           ...           ",
"                         ",
"                         ",
"                         "};
