/* XPM */
static char * pushdn_xpm[] = {
"25 25 4 1",
" 	c None",
".	c gray80",
"X	c darkred",
"o	c red",
"                         ",
"                         ",
"                         ",
"          .....          ",
"        .........        ",
"       ...........       ",
"      ....XXXXX....      ",
"     ....XoooooX....     ",
"    ....XoooooooX....    ",
"    ...XoooooooooX...    ",
"    ..XoooooooooooX..    ",
"   ...XoooooooooooX...   ",
"   ...XoooooooooooX...   ",
"   ...XoooooooooooX...   ",
"    ..XoooooooooooX..    ",
"    ...XoooooooooX...    ",
"    ....XoooooooX....    ",
"     ....XoooooX....     ",
"      ....XXXXX....      ",
"       ...........       ",
"        .........        ",
"           ...           ",
"                         ",
"                         ",
"                         "};
