/* XPM */
static char * swdn_xpm[] = {
"25 25 7 1",
" 	c None",
".	c gray80",
"X	c gray50",
"o	c gray75",
"O	c black",
"+	c gray40",
"@	c white",
"                         ",
"                         ",
"                         ",
"           ...           ",
"        .........        ",
"       ...........       ",
"      ....XXXXX....      ",
"     ....XoooooX....     ",
"    ....XoooXoooX....    ",
"    ...XooXXOXXooX...    ",
"    ..XooXOO+OOXooX..    ",
"   ...XooXO+++OXooX...   ",
"   ...XoXOO+++OOXoX...   ",
"   ...XooXO+++OXooX...   ",
"    ..XooXO+++OXooX..    ",
"    ...XooX+++XooX...    ",
"    ....Xo+++++oX....    ",
"     ....X+++++X....     ",
"      ....+++++....      ",
"       ...++@++...       ",
"        ..+@@@+..        ",
"          +@@@+          ",
"          +@@@+          ",
"           +++           ",
"                         "};
