/* XPM */
static char * swup_xpm[] = {
"25 25 7 1",
" 	c None",
".	c gray40",
"X	c white",
"o	c gray80",
"O	c gray50",
"+	c gray75",
"@	c black",
"                         ",
"           ...           ",
"          .XXX.          ",
"          .XXX.          ",
"        oo.XXX.oo        ",
"       ooo..X..ooo       ",
"      oooo.....oooo      ",
"     ooooO.....Ooooo     ",
"    ooooO+.....+Ooooo    ",
"    oooO++O...O++Oooo    ",
"    ooO++O@...@O++Ooo    ",
"   oooO++O@...@O++Oooo   ",
"   oooO+O@@...@@O+Oooo   ",
"   oooO++O@...@O++Oooo   ",
"    ooO++O@@.@@O++Ooo    ",
"    oooO++OO@OO++Oooo    ",
"    ooooO+++O+++Ooooo    ",
"     ooooO+++++Ooooo     ",
"      ooooOOOOOoooo      ",
"       ooooooooooo       ",
"        ooooooooo        ",
"           ooo           ",
"                         ",
"                         ",
"                         "};
