/* XPM */
static char * til311_xpm[] = {
"83 131 3 1",
" 	c #000000000000",
".	c #FFFFFFFFFFFF",
"X	c #F7F700000000",
"                    .                    .                    .                    ",
"                    .                    .                    .                    ",
"                    .                    .                    .                    ",
"       XX  XX       .               XX   .   XX  XX  XX       .   XX  XX  XX       ",
"       XX  XX       .               XX   .   XX  XX  XX       .   XX  XX  XX       ",
"                    .                    .                    .                    ",
"                    .                    .                    .                    ",
"   XX          XX   .               XX   .               XX   .               XX   ",
"   XX          XX   .               XX   .               XX   .               XX   ",
"                    .                    .                    .                    ",
"                    .                    .                    .                    ",
"   XX          XX   .               XX   .               XX   .               XX   ",
"   XX          XX   .               XX   .               XX   .               XX   ",
"                    .                    .                    .                    ",
"                    .                    .                    .                    ",
"   XX          XX   .               XX   .       XX  XX       .       XX  XX       ",
"   XX          XX   .               XX   .       XX  XX       .       XX  XX       ",
"                    .                    .                    .                    ",
"                    .                    .                    .                    ",
"   XX          XX   .               XX   .   XX               .               XX   ",
"   XX          XX   .               XX   .   XX               .               XX   ",
"                    .                    .                    .                    ",
"                    .                    .                    .                    ",
"   XX          XX   .               XX   .   XX               .               XX   ",
"   XX          XX   .               XX   .   XX               .               XX   ",
"                    .                    .                    .                    ",
"                    .                    .                    .                    ",
"       XX  XX       .               XX   .   XX  XX  XX  XX   .   XX  XX  XX       ",
"       XX  XX       .               XX   .   XX  XX  XX  XX   .   XX  XX  XX       ",
"                    .                    .                    .                    ",
"                    .                    .                    .                    ",
"                    .                    .                    .                    ",
"...................................................................................",
"                    .                    .                    .                    ",
"                    .                    .                    .                    ",
"                    .                    .                    .                    ",
"   XX               .   XX  XX  XX  XX   .       XX  XX       .   XX  XX  XX  XX   ",
"   XX               .   XX  XX  XX  XX   .       XX  XX       .   XX  XX  XX  XX   ",
"                    .                    .                    .                    ",
"                    .                    .                    .                    ",
"   XX          XX   .   XX               .   XX               .               XX   ",
"   XX          XX   .   XX               .   XX               .               XX   ",
"                    .                    .                    .                    ",
"                    .                    .                    .                    ",
"   XX          XX   .   XX               .   XX               .               XX   ",
"   XX          XX   .   XX               .   XX               .               XX   ",
"                    .                    .                    .                    ",
"                    .                    .                    .                    ",
"   XX  XX  XX  XX   .   XX  XX  XX       .   XX  XX  XX       .               XX   ",
"   XX  XX  XX  XX   .   XX  XX  XX       .   XX  XX  XX       .               XX   ",
"                    .                    .                    .                    ",
"                    .                    .                    .                    ",
"               XX   .               XX   .   XX          XX   .               XX   ",
"               XX   .               XX   .   XX          XX   .               XX   ",
"                    .                    .                    .                    ",
"                    .                    .                    .                    ",
"               XX   .               XX   .   XX          XX   .               XX   ",
"               XX   .               XX   .   XX          XX   .               XX   ",
"                    .                    .                    .                    ",
"                    .                    .                    .                    ",
"               XX   .   XX  XX  XX       .       XX  XX       .               XX   ",
"               XX   .   XX  XX  XX       .       XX  XX       .               XX   ",
"                    .                    .                    .                    ",
"                    .                    .                    .                    ",
"                    .                    .                    .                    ",
"...................................................................................",
"                    .                    .                    .                    ",
"                    .                    .                    .                    ",
"                    .                    .                    .                    ",
"       XX  XX       .       XX  XX       .       XX  XX       .   XX  XX  XX       ",
"       XX  XX       .       XX  XX       .       XX  XX       .   XX  XX  XX       ",
"                    .                    .                    .                    ",
"                    .                    .                    .                    ",
"   XX          XX   .   XX          XX   .   XX          XX   .   XX          XX   ",
"   XX          XX   .   XX          XX   .   XX          XX   .   XX          XX   ",
"                    .                    .                    .                    ",
"                    .                    .                    .                    ",
"   XX          XX   .   XX          XX   .   XX          XX   .   XX          XX   ",
"   XX          XX   .   XX          XX   .   XX          XX   .   XX          XX   ",
"                    .                    .                    .                    ",
"                    .                    .                    .                    ",
"       XX  XX       .       XX  XX  XX   .   XX  XX  XX  XX   .   XX  XX  XX       ",
"       XX  XX       .       XX  XX  XX   .   XX  XX  XX  XX   .   XX  XX  XX       ",
"                    .                    .                    .                    ",
"                    .                    .                    .                    ",
"   XX          XX   .               XX   .   XX          XX   .   XX          XX   ",
"   XX          XX   .               XX   .   XX          XX   .   XX          XX   ",
"                    .                    .                    .                    ",
"                    .                    .                    .                    ",
"   XX          XX   .               XX   .   XX          XX   .   XX          XX   ",
"   XX          XX   .               XX   .   XX          XX   .   XX          XX   ",
"                    .                    .                    .                    ",
"                    .                    .                    .                    ",
"       XX  XX       .       XX  XX       .   XX          XX   .   XX  XX  XX       ",
"       XX  XX       .       XX  XX       .   XX          XX   .   XX  XX  XX       ",
"                    .                    .                    .                    ",
"                    .                    .                    .                    ",
"                    .                    .                    .                    ",
"...................................................................................",
"                    .                    .                    .                    ",
"                    .                    .                    .                    ",
"                    .                    .                    .                    ",
"       XX  XX  XX   .   XX  XX  XX       .   XX  XX  XX  XX   .   XX  XX  XX  XX   ",
"       XX  XX  XX   .   XX  XX  XX       .   XX  XX  XX  XX   .   XX  XX  XX  XX   ",
"                    .                    .                    .                    ",
"                    .                    .                    .                    ",
"   XX               .   XX          XX   .   XX               .   XX               ",
"   XX               .   XX          XX   .   XX               .   XX               ",
"                    .                    .                    .                    ",
"                    .                    .                    .                    ",
"   XX               .   XX          XX   .   XX               .   XX               ",
"   XX               .   XX          XX   .   XX               .   XX               ",
"                    .                    .                    .                    ",
"                    .                    .                    .                    ",
"   XX               .   XX          XX   .   XX  XX  XX       .   XX  XX  XX       ",
"   XX               .   XX          XX   .   XX  XX  XX       .   XX  XX  XX       ",
"                    .                    .                    .                    ",
"                    .                    .                    .                    ",
"   XX               .   XX          XX   .   XX               .   XX               ",
"   XX               .   XX          XX   .   XX               .   XX               ",
"                    .                    .                    .                    ",
"                    .                    .                    .                    ",
"   XX               .   XX          XX   .   XX               .   XX               ",
"   XX               .   XX          XX   .   XX               .   XX               ",
"                    .                    .                    .                    ",
"                    .                    .                    .                    ",
"       XX  XX  XX   .   XX  XX  XX       .   XX  XX  XX  XX   .   XX               ",
"       XX  XX  XX   .   XX  XX  XX       .   XX  XX  XX  XX   .   XX               ",
"                    .                    .                    .                    ",
"                    .                    .                    .                    ",
"                    .                    .                    .                    "};
